<?xml version="1.0" encoding="utf-8"?>
<!-- Generator: Adobe Illustrator 19.0.0, SVG Export Plug-In . SVG Version: 6.00 Build 0)  -->
<svg version="1.1" id="Layer_1" xmlns="http://www.w3.org/2000/svg" xmlns:xlink="http://www.w3.org/1999/xlink" x="0px" y="0px"
	 viewBox="0 0 1280 800" style="enable-background:new 0 0 1280 800;" xml:space="preserve">
<style type="text/css">
	.st0{fill:#000F32;}
	.st1{fill:#99A3BB;}
</style>
<g id="XMLID_4_">
	<path id="XMLID_22_" class="st0" d="M237.9,450.8c-17.9-38.1-11.1-85,20.2-116.6c33.9-34.2,85.7-39.8,125.4-16.7
		c7.4,4.3,14.1,9.7,20.5,16c18.3,18.1,29,41.4,30,65.3V511h-51v-14.6c-20,12.1-44.7,16.3-67.8,12.7c-9.2-1.4-18.2-4.2-26.8-8.1
		l0.1-0.1l15.8-15.9l1.4-1.6L330,459h0.3c1.3,0,2.6-0.1,3.9-0.2c0.1,0,0.2-0.1,0.3-0.1c0.1,0,0.2,0,0.3,0c1.7-0.1,3.4-0.3,5.1-0.6
		c0.5-0.1,1-0.2,1.5-0.3c1-0.2,2-0.4,2.9-0.6c1-0.2,1.9-0.5,2.9-0.8c0.5-0.1,1-0.3,1.4-0.5c0.5-0.2,0.9-0.3,1.4-0.5
		c0.6-0.2,1.2-0.4,1.7-0.7c0.4-0.1,0.7-0.3,1-0.4c0.1,0,0.1-0.1,0.2-0.1c0.4-0.2,0.9-0.4,1.3-0.6c0.5-0.2,0.9-0.4,1.4-0.7
		c0.9-0.4,1.7-0.9,2.5-1.4c0.1-0.1,0.2-0.1,0.3-0.2c0.4-0.2,0.7-0.4,1.1-0.7c0.4-0.2,0.7-0.5,1.1-0.7c0.1-0.1,0.2-0.1,0.3-0.2
		c0.2-0.1,0.4-0.3,0.6-0.4c0.2-0.2,0.4-0.3,0.6-0.5c0.3-0.2,0.6-0.4,0.8-0.6c0.5-0.4,1.1-0.9,1.6-1.3c0.1-0.1,0.2-0.2,0.3-0.2
		c0.2-0.2,0.4-0.3,0.6-0.5c0.2-0.2,0.4-0.4,0.6-0.5c0,0,0,0,0,0c0,0,0.1-0.1,0.1-0.1c0.7-0.6,1.3-1.2,2-1.9c0,0,0,0,0,0c0,0,0,0,0,0
		c0.1-0.1,0.2-0.2,0.3-0.3c2.3-2.3,4.4-4.8,6.1-7.4c0,0,0,0,0-0.1c0.4-0.6,0.9-1.3,1.3-1.9c0,0,0,0,0-0.1c0.4-0.7,0.8-1.3,1.2-2
		c0,0,0,0,0,0c9.8-17.8,8.4-40.2-4.3-56.6c-0.1-0.2-0.2-0.3-0.4-0.5c0,0,0,0,0,0c-0.1-0.2-0.2-0.3-0.4-0.4c0,0,0,0,0,0v0
		c0-0.2-0.4-0.5-0.6-0.7c0,0,0,0,0,0c0-0.1-0.1-0.1-0.1-0.1c-0.2-0.3-0.4-0.5-0.7-0.8c0,0,0,0,0,0c0,0-0.1-0.1-0.1-0.1
		c-0.1-0.2-0.3-0.3-0.4-0.5c-0.1-0.1-0.2-0.3-0.4-0.4c-0.2-0.2-0.5-0.4-0.7-0.7c0,0-0.1,0-0.1,0c0,0,0,0,0,0V371c0,0,0,0,0,0
		c0-0.2-1-0.4-1-0.6v-0.2c0,0,0.2-0.2,0.1-1.2h0c-9.8-9-22.5-14.2-35.3-14.5c-0.7,0-1.4,0.2-2.1,0.3c-0.1,0-0.2,0.1-0.4,0.1
		c-0.2,0-0.3,0.1-0.5,0.1h0c-0.2,0-0.4,0-0.6,0c-0.1,0-0.2,0-0.2,0c-0.4,0-0.8,0.1-1.1,0.1c-0.4,0-0.8,0.1-1.2,0.1c0,0-0.1,0-0.1,0
		c-0.4,0-0.8,0.1-1.2,0.1c-0.4,0.1-0.8,0.1-1.2,0.2c-0.4,0.1-0.8,0.1-1.2,0.2c-0.2,0-0.3,0.1-0.5,0.1c-0.2,0-0.5,0.1-0.7,0.1
		c-0.6,0.1-1.1,0.2-1.7,0.4c0,0-0.1,0-0.1,0c-0.5,0.1-1.1,0.3-1.7,0.4c-0.1,0-0.1,0-0.2,0.1c-0.4,0.1-0.8,0.4-1.2,0.6
		c-0.4,0.1-0.8,0.6-1.2,0.6h0c-0.4,0-0.8,0-1.2,0.2c-0.4,0.1-0.8,0.2-1.2,0.3c0,0,0,0-0.1,0c-0.3,0.1-0.6,0.2-1,0.4
		c-0.1,0-0.1,0-0.2,0.1c0,0,0,0,0,0v0c-1,0.1-0.4,0.1-0.5,0.2c-0.1,0-0.2,0.1-0.3,0.1c-0.3,0.1-0.5,0.2-0.7,0.3l-0.6,0.3
		c-0.1,0-0.2,0.1-0.2,0.1c-0.4,0.2-0.8,0.4-1.1,0.6c-1.5,0.8-3,1.6-4.5,2.5c-0.2,0.2-0.5,0.3-0.7,0.5c-0.1,0.1-0.2,0.2-0.4,0.2
		c-0.3,0.2-0.5,0.4-0.8,0.5c-0.4,0.3-0.9,0.6-1.3,1c-0.7,0.5-1.4,1.1-2.1,1.6c-1.4,1.1-2.7,2.3-3.9,3.6c-0.3,0.3-0.7,0.7-1,1
		c-0.3,0.3-0.6,0.6-0.8,0.9c-0.2,0.3-0.4,0.5-0.7,0.7c-0.2,0.2-0.4,0.5-0.6,0.7c-0.2,0.3-0.5,0.5-0.7,0.8c-0.1,0.1-0.1,0.1-0.1,0.2
		c-0.2,0.2-0.4,0.5-0.6,0.7c-0.1,0.1-0.2,0.2-0.3,0.3c-0.1,0.2-0.2,0.3-0.4,0.5c-0.3,0.3-0.5,0.7-0.7,1.1c-0.5,0.8-1,1.5-1.5,2.3
		c-0.2,0.3-0.4,0.6-0.5,0.9c0,0-0.1,0.1-0.1,0.1c-0.1,0.2-0.2,0.4-0.3,0.5c-0.2,0.3-0.3,0.5-0.4,0.8c-0.2,0.3-0.3,0.5-0.4,0.8
		c-0.1,0.3-0.3,0.5-0.4,0.8c-0.1,0.2-0.2,0.4-0.3,0.6c-0.5,1.1-1,2.1-1.4,3.2c-0.1,0.4-0.3,0.7-0.4,1.1c-0.1,0.3-0.2,0.6-0.3,1
		c0,0.1-0.1,0.2-0.1,0.4c-0.1,0.3-0.2,0.6-0.3,0.9c-0.3,0.9-0.6,1.8-0.8,2.8c-0.1,0.3-0.2,0.7-0.3,1c-0.1,0.4-0.2,0.8-0.3,1.2
		c-0.1,0.4-0.2,0.7-0.2,1.1c-0.2,0.8-0.3,1.5-0.4,2.3c0,0.3-0.1,0.6-0.1,0.8c0,0.2-0.1,0.4-0.1,0.7c-0.1,0.4-0.1,0.8-0.1,1.2
		c0,0.3-0.1,0.7-0.1,1l0,0.3c0,0.1,0,0.3,0,0.4c0,0.3,0,0.6-0.1,0.9c-0.1,1.3-0.1,2.7,0,4L237.9,450.8z"/>
	<path id="XMLID_15_" class="st1" d="M317.9,457l-1.4,1.4l-37.4,37.8L266.5,509H137V304h51v155h53.8c0.4,0,0.7,0.9,1.1,1.5l1.8-2
		l36.9-37.3c2.4,8.3,6.8,16.1,13.4,22.6C301.6,450.3,309.5,454.7,317.9,457z"/>
</g>
<g id="XMLID_5_">
	<path id="XMLID_6_" class="st1" d="M491.4,395.8v-65.4H503V386h27.2v9.8H491.4z"/>
	<path id="XMLID_8_" class="st1" d="M541.6,395.8v-65.4H581v9.8h-27.8v16.7h23.5v9.8h-23.5V386H582v9.8H541.6z"/>
	<path id="XMLID_10_" class="st1" d="M595.4,395.8v-65.4h39.4v9.8H607v16.7h23.5v9.8H607V386h28.8v9.8H595.4z"/>
	<path id="XMLID_12_" class="st1" d="M649.2,395.8v-65.4h17.5c10,0,17.8,2.7,23.4,8.1c5.6,5.4,8.4,13.5,8.4,24.3
		c0,5.4-0.7,10.2-2.1,14.3c-1.4,4.1-3.5,7.6-6.2,10.4c-2.7,2.8-6,4.9-9.8,6.3c-3.8,1.4-8.2,2.1-13,2.1H649.2z M660.8,386.4h5.1
		c6.7,0,11.8-1.9,15.3-5.8c3.6-3.8,5.4-9.8,5.4-17.9c0-8-1.8-13.8-5.4-17.5c-3.6-3.7-8.7-5.5-15.3-5.5h-5.1V386.4z"/>
	<path id="XMLID_16_" class="st1" d="M730.8,397c-4.4,0-8.7-0.8-12.8-2.5c-4.1-1.7-7.7-4-10.9-7.1l6.8-7.9c2.3,2.2,5,4,8,5.3
		c3,1.4,6,2.1,9,2.1c3.7,0,6.6-0.8,8.5-2.3c1.9-1.5,2.9-3.6,2.9-6.1c0-1.3-0.3-2.5-0.8-3.4c-0.5-0.9-1.2-1.8-2.1-2.4
		c-0.9-0.7-2-1.4-3.2-2c-1.2-0.6-2.6-1.2-4-1.8l-9-3.9c-1.6-0.7-3.2-1.5-4.8-2.5c-1.6-1-3-2.2-4.3-3.6c-1.3-1.4-2.3-3-3.1-4.9
		c-0.8-1.9-1.1-4-1.1-6.4c0-2.6,0.5-5,1.6-7.3c1.1-2.2,2.6-4.2,4.6-5.8c1.9-1.7,4.3-3,6.9-3.9c2.7-0.9,5.7-1.4,8.9-1.4
		c3.8,0,7.5,0.8,11,2.3c3.5,1.5,6.6,3.5,9.1,6.1l-5.9,7.4c-2.1-1.7-4.3-3.1-6.6-4.1c-2.3-1-4.8-1.5-7.6-1.5c-3.1,0-5.6,0.7-7.5,2
		c-1.9,1.4-2.8,3.3-2.8,5.7c0,1.3,0.3,2.3,0.8,3.3c0.6,0.9,1.3,1.7,2.3,2.4c1,0.7,2.1,1.3,3.4,1.9c1.3,0.6,2.6,1.1,3.9,1.6l8.9,3.7
		c1.9,0.8,3.7,1.7,5.3,2.8c1.6,1.1,3,2.3,4.2,3.7c1.2,1.4,2.1,3,2.8,4.9c0.7,1.8,1,3.9,1,6.3c0,2.7-0.5,5.2-1.6,7.5
		c-1.1,2.3-2.6,4.4-4.6,6.2c-2,1.8-4.5,3.2-7.4,4.2S734.5,397,730.8,397z"/>
	<path id="XMLID_18_" class="st1" d="M482.9,515.8l21.3-65.4h13.6l21.3,65.4h-12.2l-5.1-17.7h-22l-5.1,17.7H482.9z M504.8,481
		l-2.3,8h16.7l-2.3-8c-1.1-3.5-2.1-7-3-10.7c-1-3.7-1.9-7.3-2.8-10.9h-0.4c-0.9,3.7-1.9,7.3-2.8,11C506.9,474,505.9,477.5,504.8,481
		z"/>
	<path id="XMLID_21_" class="st1" d="M572.3,517c-4.1,0-8-0.7-11.6-2.2c-3.6-1.5-6.7-3.6-9.3-6.5c-2.6-2.9-4.7-6.4-6.3-10.6
		c-1.5-4.2-2.3-9-2.3-14.4c0-5.3,0.8-10.1,2.3-14.4c1.6-4.2,3.7-7.8,6.4-10.8c2.7-2.9,5.9-5.2,9.5-6.7c3.6-1.5,7.5-2.3,11.6-2.3
		c4.1,0,7.8,0.8,11,2.5c3.2,1.7,5.8,3.6,7.9,5.8l-6.2,7.5c-1.7-1.7-3.6-3.1-5.6-4.2c-2-1-4.3-1.5-6.8-1.5c-2.7,0-5.1,0.5-7.3,1.6
		c-2.2,1.1-4.2,2.7-5.8,4.7c-1.6,2-2.9,4.5-3.8,7.5c-0.9,2.9-1.4,6.2-1.4,9.9c0,7.5,1.6,13.3,4.9,17.5c3.2,4.2,7.6,6.3,13.1,6.3
		c2.9,0,5.5-0.6,7.8-1.8c2.3-1.2,4.3-2.9,6.2-4.9l6.2,7.3c-2.7,3.1-5.7,5.4-9.2,7S576.5,517,572.3,517z"/>
	<path id="XMLID_24_" class="st1" d="M626.6,517c-4.1,0-8-0.7-11.6-2.2c-3.6-1.5-6.7-3.6-9.3-6.5c-2.6-2.9-4.7-6.4-6.3-10.6
		c-1.5-4.2-2.3-9-2.3-14.4c0-5.3,0.8-10.1,2.3-14.4c1.6-4.2,3.7-7.8,6.4-10.8c2.7-2.9,5.9-5.2,9.5-6.7c3.6-1.5,7.5-2.3,11.6-2.3
		c4.1,0,7.8,0.8,11,2.5c3.2,1.7,5.8,3.6,7.9,5.8l-6.2,7.5c-1.7-1.7-3.6-3.1-5.6-4.2c-2-1-4.3-1.5-6.8-1.5c-2.7,0-5.1,0.5-7.3,1.6
		c-2.2,1.1-4.2,2.7-5.8,4.7c-1.6,2-2.9,4.5-3.8,7.5c-0.9,2.9-1.4,6.2-1.4,9.9c0,7.5,1.6,13.3,4.9,17.5c3.2,4.2,7.6,6.3,13.1,6.3
		c2.9,0,5.5-0.6,7.8-1.8c2.3-1.2,4.3-2.9,6.2-4.9l6.2,7.3c-2.7,3.1-5.7,5.4-9.2,7S630.8,517,626.6,517z"/>
	<path id="XMLID_26_" class="st1" d="M680.2,517c-4.3,0-8.2-0.8-11.7-2.4c-3.5-1.6-6.6-3.8-9.1-6.8c-2.5-3-4.5-6.5-5.9-10.8
		s-2.1-9-2.1-14.3c0-5.3,0.7-10,2.1-14.2c1.4-4.2,3.4-7.7,5.9-10.5c2.5-2.9,5.6-5.1,9.1-6.6c3.5-1.5,7.4-2.3,11.7-2.3
		c4.3,0,8.2,0.8,11.7,2.3c3.5,1.5,6.6,3.7,9.1,6.6c2.6,2.9,4.5,6.4,6,10.5c1.4,4.2,2.1,8.9,2.1,14.2c0,5.3-0.7,10.1-2.1,14.3
		s-3.4,7.8-6,10.8c-2.6,3-5.6,5.2-9.1,6.8C688.4,516.2,684.5,517,680.2,517z M680.2,506.9c2.6,0,4.9-0.6,7-1.7
		c2.1-1.1,3.8-2.8,5.3-4.8c1.5-2.1,2.6-4.6,3.4-7.6c0.8-3,1.2-6.3,1.2-10c0-7.3-1.5-13.1-4.5-17.3c-3-4.2-7.1-6.3-12.3-6.3
		s-9.3,2.1-12.4,6.3c-3,4.2-4.5,9.9-4.5,17.3c0,3.7,0.4,7,1.2,10c0.8,3,1.9,5.5,3.4,7.6c1.5,2.1,3.2,3.7,5.3,4.8
		C675.3,506.3,677.6,506.9,680.2,506.9z"/>
	<path id="XMLID_29_" class="st1" d="M746.7,517c-3.8,0-7.2-0.6-10.3-1.7c-3-1.1-5.6-2.8-7.8-5.2c-2.2-2.4-3.8-5.5-5-9.3
		c-1.2-3.8-1.8-8.3-1.8-13.8v-36.7h11.6V488c0,3.5,0.3,6.5,1,8.9c0.6,2.4,1.5,4.4,2.7,5.9c1.2,1.5,2.5,2.5,4.2,3.1
		c1.6,0.6,3.4,1,5.4,1s3.8-0.3,5.5-1c1.7-0.6,3.1-1.7,4.3-3.1c1.2-1.5,2.1-3.4,2.8-5.9c0.7-2.4,1-5.4,1-8.9v-37.6h11.1v36.7
		c0,5.4-0.6,10-1.7,13.8c-1.1,3.8-2.8,6.8-5,9.3c-2.2,2.4-4.8,4.2-7.8,5.2C753.9,516.4,750.5,517,746.7,517z"/>
	<path id="XMLID_31_" class="st1" d="M787.7,515.8v-65.4h11.9l20.4,36.8l6.7,13.9h0.4c-0.3-3.4-0.6-7-1-11
		c-0.4-3.9-0.5-7.7-0.5-11.3v-28.4h11.1v65.4h-11.9L804.4,479l-6.7-13.9h-0.4c0.3,3.5,0.6,7.1,0.9,10.9c0.4,3.8,0.6,7.5,0.6,11.2
		v28.6H787.7z"/>
	<path id="XMLID_33_" class="st1" d="M866.5,515.8v-55.6h-18.9v-9.8H897v9.8h-18.9v55.6H866.5z"/>
	<path id="XMLID_35_" class="st1" d="M895.4,515.8l21.3-65.4h13.6l21.3,65.4h-12.2l-5.1-17.7h-22l-5.1,17.7H895.4z M917.3,481
		l-2.3,8h16.7l-2.3-8c-1.1-3.5-2.1-7-3-10.7c-1-3.7-1.9-7.3-2.8-10.9h-0.4c-0.9,3.7-1.9,7.3-2.8,11C919.4,474,918.4,477.5,917.3,481
		z"/>
	<path id="XMLID_38_" class="st1" d="M959.7,515.8v-65.4h11.9l20.4,36.8l6.7,13.9h0.4c-0.3-3.4-0.6-7-1-11
		c-0.4-3.9-0.5-7.7-0.5-11.3v-28.4h11.1v65.4h-11.9L976.4,479l-6.7-13.9h-0.4c0.3,3.5,0.6,7.1,0.9,10.9c0.4,3.8,0.6,7.5,0.6,11.2
		v28.6H959.7z"/>
	<path id="XMLID_40_" class="st1" d="M1038.5,515.8v-55.6h-18.9v-9.8h49.4v9.8h-18.9v55.6H1038.5z"/>
	<path id="XMLID_42_" class="st1" d="M1095.8,517c-4.4,0-8.7-0.8-12.8-2.5c-4.1-1.7-7.7-4-10.9-7.1l6.8-7.9c2.3,2.2,5,4,8,5.3
		c3,1.4,6,2,9,2c3.7,0,6.6-0.8,8.5-2.3c1.9-1.5,2.9-3.6,2.9-6.1c0-1.3-0.3-2.5-0.8-3.4c-0.5-0.9-1.2-1.8-2.1-2.5
		c-0.9-0.7-2-1.3-3.2-2c-1.2-0.6-2.6-1.2-4-1.8l-9-3.9c-1.6-0.7-3.2-1.5-4.8-2.5c-1.6-1-3-2.2-4.3-3.6c-1.3-1.4-2.3-3-3.1-4.9
		c-0.8-1.9-1.1-4-1.1-6.4c0-2.6,0.5-5,1.6-7.3c1.1-2.2,2.6-4.2,4.6-5.8c1.9-1.7,4.3-3,6.9-3.9c2.7-0.9,5.7-1.4,8.9-1.4
		c3.8,0,7.5,0.8,11,2.3c3.5,1.5,6.6,3.5,9.1,6.1l-5.9,7.4c-2.1-1.7-4.3-3.1-6.6-4.1c-2.3-1-4.8-1.5-7.6-1.5c-3.1,0-5.6,0.7-7.5,2
		c-1.9,1.4-2.8,3.3-2.8,5.7c0,1.3,0.3,2.3,0.8,3.3c0.6,0.9,1.3,1.7,2.3,2.4c1,0.7,2.1,1.3,3.4,1.9c1.3,0.6,2.6,1.1,3.9,1.6l8.9,3.7
		c1.9,0.8,3.7,1.7,5.3,2.8c1.6,1.1,3,2.3,4.2,3.7c1.2,1.4,2.1,3,2.8,4.9c0.7,1.8,1,3.9,1,6.3c0,2.7-0.5,5.2-1.6,7.5
		c-1.1,2.3-2.6,4.4-4.6,6.2c-2,1.8-4.5,3.2-7.4,4.2C1102.7,516.5,1099.5,517,1095.8,517z"/>
</g>
</svg>
